<svg width="580" height="255" viewBox="0 0 580 255" fill="none" xmlns="http://www.w3.org/2000/svg">
<path d="M515 7C520.146 7 524.599 8.92969 528.359 12.7891C532.12 16.6484 534 21.2187 534 26.5C534 31.7812 532.12 36.3516 528.359 40.2109C524.599 44.0703 520.146 46 515 46C509.854 46 505.401 44.0703 501.641 40.2109C497.88 36.3516 496 31.7812 496 26.5C496 21.2187 497.88 16.6484 501.641 12.7891C505.401 8.92969 509.854 7 515 7Z" fill="url(#paint0_linear_435_849)"/>
<g filter="url(#filter0_d_435_849)">
<path d="M102.935 51.1351C104.984 49.9531 107.285 49.2798 109.647 49.1715C111.705 49.1163 113.745 49.5683 115.588 50.4877C117.431 51.4072 119.022 52.766 120.219 54.4452C121.379 56.1638 122.103 58.1408 122.327 60.2039C122.551 62.2671 122.269 64.354 121.506 66.2829C119.876 69.7042 117.241 72.5431 113.954 74.4178C105.62 79.7476 95.5507 81.4868 86.3768 85.3579C85.5937 85.6945 84.6427 86.2556 84.6987 87.0971C84.7546 87.9387 85.5937 88.4436 86.3768 88.7241C89.1178 89.734 91.9706 90.5194 94.6557 91.4732C103.68 94.4609 111.57 100.161 117.255 107.799C120.043 111.702 121.906 116.193 122.701 120.928C123.496 125.663 123.202 130.517 121.842 135.121C119.763 140.355 116.438 144.999 112.157 148.647C107.877 152.294 102.77 154.835 97.2848 156.048C89.1252 158.286 80.4372 157.53 72.7839 153.916C69.0218 152.045 65.8165 149.215 63.4896 145.709C61.1626 142.204 59.7959 138.146 59.5265 133.943C59.4172 129.733 60.7601 125.614 63.3284 122.281C65.8966 118.949 69.5329 116.608 73.6229 115.654C75.4732 115.23 77.406 115.348 79.1911 115.994C80.9763 116.641 82.5385 117.788 83.6918 119.3C85.191 122.853 85.428 126.814 84.3631 130.521C83.6375 134.223 84.1282 138.062 85.7615 141.461C86.6209 143.043 87.9931 144.284 89.6511 144.978C91.3092 145.671 93.1536 145.777 94.8794 145.276C96.6181 144.201 97.992 142.624 98.8206 140.751C99.6492 138.879 99.8938 136.799 99.5223 134.785C98.6549 125.958 94.5 117.784 87.8872 111.895C81.3056 106.117 73.4422 102 64.9525 99.8886C60.5111 99.1995 56.3582 97.2532 52.9817 94.2783C51.8354 93.0087 50.9848 91.4994 50.4914 89.8596C49.998 88.2198 49.8742 86.4906 50.1289 84.7969C50.3985 83.0266 51.0357 81.3329 51.9993 79.8252C52.9629 78.3176 54.2314 77.0297 55.7227 76.0448C59.5365 74.2335 63.5565 72.8958 67.6935 72.0615C75.6309 69.1992 83.1548 65.2941 90.0687 60.4482C91.4672 59.4944 92.8097 58.4846 94.1522 57.4186C96.8849 55.063 99.8243 52.96 102.935 51.1351Z" fill="white"/>
<path d="M131.518 67.6294C131.423 65.9734 131.759 64.3209 132.495 62.8353C133.231 61.3496 134.34 60.0821 135.714 59.1579C138.427 57.303 141.563 56.1645 144.831 55.8478C147.882 55.4661 150.977 55.9318 153.782 57.1943C154.947 57.5537 155.95 58.3124 156.614 59.3379C157.279 60.3633 157.563 61.5903 157.418 62.8046C156.97 69.9296 156.299 77.3352 155.404 85.2458C154.621 92.2025 153.726 99.1593 152.998 106.172C152.719 108.528 149.698 130.128 154.621 128.613C157.082 127.772 158.704 123.789 159.655 121.6C161.547 117.1 163.172 112.492 164.522 107.799C165.976 103.386 167.375 98.9536 168.717 94.5028C170.004 90.0706 171.234 85.8629 172.353 81.8235C173.472 77.7841 174.423 74.6423 175.318 72.1738C175.258 70.7958 175.669 69.4388 176.483 68.3269C177.297 67.215 178.464 66.4148 179.793 66.0585C182.66 65.2185 185.708 65.2185 188.575 66.0585C191.524 66.8567 194.295 68.2084 196.742 70.0418C197.712 70.6163 198.512 71.438 199.062 72.4235C199.613 73.4089 199.893 74.5229 199.875 75.6521C198.98 79.6355 198.141 84.6286 197.413 90.5755C196.686 96.5225 196.127 102.357 195.903 107.911C195.649 112.686 195.817 117.473 196.406 122.218C196.966 126.201 198.196 128.165 200.21 128.165C202.224 128.165 203.119 126.481 205.021 123.059C207.129 119.118 208.997 115.053 210.615 110.885C212.349 106.228 214.027 101.572 215.593 96.9152C216.797 93.4259 217.787 89.866 218.558 86.2556C218.674 85.3289 219.002 84.4417 219.516 83.6631C220.03 82.8845 220.717 82.2357 221.523 81.7674C222.952 81.0306 224.586 80.7937 226.166 81.0941C227.721 81.4238 229.097 82.3241 230.025 83.6188C230.49 84.3547 230.777 85.1891 230.865 86.0557C230.952 86.9224 230.837 87.7976 230.529 88.6119C230.081 90.4072 229.13 93.7173 227.676 98.5983C226.078 104 224.211 109.317 222.082 114.532C219.783 120.358 217.014 125.987 213.803 131.362C211.189 136.148 207.42 140.199 202.839 143.144C200.437 144.708 197.581 145.419 194.728 145.164C191.722 144.923 188.793 144.084 186.114 142.695C183.239 141.143 180.738 138.98 178.786 136.356C176.66 133.452 175.243 130.09 174.647 126.538C173.966 122.837 173.647 119.079 173.696 115.317C171.748 121.353 169.413 127.256 166.703 132.989C164.393 138.024 161.254 142.633 157.418 146.622C155.425 148.921 152.656 150.4 149.642 150.774C146.667 151.114 143.657 150.588 140.972 149.259C138.177 147.93 135.697 146.017 133.7 143.649C131.586 141.12 130.16 138.086 129.56 134.841C128.757 130.569 128.382 126.228 128.442 121.881C128.442 116.757 128.609 111.147 128.945 105.05C129.281 99.1032 129.728 92.8758 130.288 86.4239C130.847 79.9721 131.35 74.1374 131.518 67.6294Z" fill="white"/>
<path d="M292.06 74.642C290.997 85.526 290.326 95.0635 290.102 103.255C289.878 111.446 289.654 119.019 289.431 125.696C298.501 113.851 305.552 100.581 310.296 86.4236C310.506 85.5018 310.896 84.6308 311.443 83.8605C311.991 83.0903 312.684 82.4361 313.484 81.9354C314.127 81.5777 314.833 81.3506 315.564 81.267C316.294 81.1835 317.033 81.245 317.74 81.4482C318.446 81.6514 319.106 81.9923 319.681 82.4513C320.256 82.9103 320.736 83.4785 321.092 84.1234C321.505 85.0004 321.719 85.9585 321.719 86.9286C321.719 87.8986 321.505 88.8567 321.092 89.7337C317.753 101.412 312.781 112.556 306.324 122.834C301.126 131.04 294.945 138.577 287.92 145.276C287.473 148.81 286.857 152.345 286.13 155.935C285.403 159.526 284.396 163.116 283.277 167.156C280.74 176.478 275.527 184.848 268.286 191.224C262.626 196.069 255.764 199.287 248.428 200.537C242.05 201.584 235.508 200.847 229.521 198.405C226.738 197.418 224.184 195.874 222.014 193.868C219.843 191.861 218.101 189.434 216.893 186.733C215.685 184.032 215.036 181.113 214.986 178.153C214.935 175.193 215.484 172.253 216.599 169.512C219.32 163.891 223.517 159.12 228.738 155.711C234.348 151.926 240.496 149.013 246.974 147.071C252.563 145.17 258.339 143.872 264.203 143.2L265.209 134.223C263.292 136.796 260.876 138.952 258.105 140.563C254.669 142.404 250.812 143.313 246.918 143.2C243.408 143.405 239.893 142.894 236.586 141.698C233.279 140.502 230.247 138.647 227.675 136.243C222.822 131.4 219.446 125.269 217.942 118.571C216.298 111.017 215.958 103.237 216.935 95.5684C217.862 87.7145 219.936 80.0399 223.088 72.7906C225.886 66.215 230.065 60.3213 235.338 55.5109C240.134 51.0707 246.433 48.624 252.959 48.6663C257.15 48.7387 261.207 50.1542 264.538 52.7057C268.717 55.4826 272.048 59.3664 274.16 63.9263C276.177 63.4737 278.248 63.3037 280.313 63.4214C282.369 63.528 284.393 63.9833 286.298 64.7679C288.083 65.5742 289.597 66.8792 290.661 68.5268C291.802 70.3487 292.295 72.5037 292.06 74.642ZM262.245 155.486C255.936 156.52 249.903 158.83 244.512 162.275C241.931 163.831 239.719 165.931 238.028 168.431C236.338 170.93 235.21 173.769 234.723 176.749C234.307 178.128 234.253 179.591 234.567 180.997C234.88 182.402 235.551 183.703 236.513 184.772C237.438 185.684 238.6 186.315 239.867 186.593C241.134 186.871 242.453 186.785 243.673 186.343C247.403 184.775 250.619 182.19 252.959 178.881C256.915 173.342 259.73 167.067 261.238 160.423L262.245 155.486ZM262.692 114.868C264.746 109.456 266.081 103.798 266.664 98.0369C267.288 92.4441 267.288 86.7989 266.664 81.206C266.317 76.8425 265.278 72.5623 263.587 68.5268C263.076 67.0528 262.22 65.7232 261.091 64.6495C259.962 63.5757 258.593 62.789 257.098 62.3554C255.538 62.1932 253.964 62.5016 252.579 63.2412C251.194 63.9807 250.06 65.1178 249.323 66.5071C246.691 70.2584 244.671 74.4057 243.338 78.7936C241.585 84.0907 240.422 89.566 239.869 95.1196C239.257 100.582 239.257 106.096 239.869 111.558C240.054 116.097 241.178 120.549 243.17 124.63C243.87 126.192 245.012 127.513 246.453 128.431C247.895 129.348 249.574 129.821 251.281 129.791C252.895 129.834 254.475 129.319 255.756 128.333C256.997 127.311 258.024 126.052 258.777 124.63C259.58 123.065 260.29 121.454 260.902 119.805C261.573 117.785 262.245 116.214 262.692 114.868Z" fill="white"/>
<path d="M474.814 82.7774C474.352 82.1838 473.768 81.6964 473.102 81.3481C472.437 80.9997 471.704 80.7984 470.954 80.7576C469.375 80.6594 467.807 81.0724 466.479 81.9358C465.723 82.4816 465.085 83.1758 464.604 83.9762C464.124 84.7767 463.81 85.6667 463.682 86.5924C462.862 90.6114 461.759 94.5671 460.382 98.4301C458.592 103.648 456.578 108.753 454.397 113.858C452.215 118.964 450.033 123.452 447.908 127.379C445.782 131.306 444.104 132.99 442.761 132.99C441.419 132.99 439.573 131.25 439.125 127.66C438.675 123.408 438.675 119.12 439.125 114.868C439.573 109.894 440.3 104.62 441.307 99.0472C442.258 93.4369 443.209 88.7804 444.104 84.741C444.999 80.7015 444.551 78.233 442.761 77.111C440.735 75.9813 438.409 75.5108 436.105 75.7645C433.276 75.8916 430.456 76.1726 427.658 76.606C425.508 77.1204 423.255 77.0035 421.169 76.2694C422.792 72.7654 423.486 68.9005 423.183 65.0488C422.736 61.5704 420.162 59.8873 415.52 59.8873C412.938 59.8636 410.429 60.7357 408.415 62.3559C406.348 63.9339 404.697 65.9946 403.605 68.3589C402.626 70.6367 402.26 73.132 402.542 75.5962C402.694 77.0193 403.091 78.4052 403.717 79.6917C404.061 80.3502 404.474 80.9707 404.947 81.5431C405.563 82.3846 405.954 82.6651 405.563 83.675C403.828 87.9949 402.486 92.5393 401.143 96.9714C399.801 101.404 398.067 105.78 396.389 110.156C396.389 110.492 396.389 110.885 395.941 111.222C394.315 115.367 392.447 119.414 390.347 123.34C388.501 126.818 386.879 128.501 385.537 128.501C384.194 128.501 382.628 126.538 382.069 122.498C381.481 117.772 381.312 113.004 381.565 108.248C381.789 102.675 382.292 96.8966 383.075 90.9123C383.859 84.9093 384.642 79.9722 385.537 75.9328C385.739 74.6297 385.669 73.2988 385.332 72.0242C384.995 70.7495 384.398 69.5588 383.579 68.5272C382.084 66.4416 380.027 64.8264 377.649 63.8706C375.208 62.9408 372.58 62.6137 369.986 62.9169C367.477 63.0295 365.11 64.1159 363.385 65.9465C361.859 63.2723 359.977 60.8187 357.791 58.6531C355.541 56.4847 352.732 54.9887 349.68 54.3331C346.121 53.4658 342.42 53.3572 338.816 54.0143C335.213 54.6715 331.786 56.0798 328.759 58.1481C322.805 62.4775 318.065 68.2747 314.999 74.979C311.35 82.5166 308.987 90.6141 308.006 98.935C306.8 107.42 306.8 116.033 308.006 124.518C309.149 132.146 311.752 139.48 315.67 146.118C317.321 149.085 319.548 151.69 322.219 153.781C324.889 155.872 327.95 157.406 331.221 158.292C335.316 159.15 339.571 158.799 343.471 157.282C348.276 155.348 352.416 152.054 355.386 147.801C358.551 143.379 361.023 138.498 362.714 133.326C364.013 136.195 365.94 138.734 368.351 140.755C370.762 142.775 373.596 144.224 376.643 144.996C378.499 145.558 380.451 145.729 382.377 145.497C384.302 145.266 386.159 144.636 387.83 143.649C391.396 141.385 394.492 138.451 396.948 135.009C399.838 131.089 402.277 126.855 404.22 122.386C406.346 117.617 408.136 113.017 409.814 108.529C411.1 105.05 412.163 101.46 413.226 97.8691C413.73 96.0738 414.233 94.2785 414.792 92.2588C415.371 90.537 415.819 88.7741 416.135 86.9851H419.323C420.45 86.9843 421.575 86.8716 422.68 86.6485C420.717 92.7122 419.331 98.9488 418.54 105.275C417.544 111.942 417.375 118.707 418.037 125.416C418.503 131.092 420.08 136.621 422.68 141.685C423.747 143.849 425.398 145.669 427.445 146.938C429.491 148.207 431.852 148.876 434.259 148.867C438.739 149.124 443.179 147.902 446.901 145.388C450.86 142.608 454.322 139.174 457.138 135.234C460.299 130.941 462.982 126.312 465.137 121.432C467.318 116.439 469.22 111.67 470.731 107.126C472.241 102.582 473.471 98.4862 474.366 94.7834C475.261 91.0806 475.765 88.7804 475.989 87.6583C476.211 85.9417 475.793 84.2032 474.814 82.7774ZM354.547 110.1C353.663 115.826 352.259 121.46 350.352 126.93C348.832 131.326 346.664 135.467 343.919 139.217C343.118 140.579 341.958 141.692 340.566 142.435C339.174 143.177 337.605 143.52 336.031 143.425C334.52 143.092 333.134 142.335 332.034 141.242C330.935 140.15 330.168 138.766 329.822 137.253C328.311 133.071 327.443 128.682 327.249 124.237C326.9 118.753 327.087 113.247 327.808 107.799C328.509 102.428 329.765 97.1447 331.556 92.0343C332.921 87.788 335.15 83.8718 338.101 80.5332C339.183 79.1863 340.603 78.1537 342.216 77.5421C343.829 76.9306 345.576 76.7624 347.275 77.0548C348.651 77.3421 349.913 78.0261 350.907 79.0227C351.9 80.0193 352.582 81.2853 352.869 82.6651C354.037 85.875 354.844 89.2057 355.274 92.5954C355.838 98.4358 355.594 104.326 354.547 110.1Z" fill="white"/>
<path d="M520.403 159.806C520.068 161.097 519.676 162.387 519.284 163.621C517.501 169.475 514.357 174.821 510.111 179.218C506.14 183.497 500.661 186.054 494.839 186.343C493.854 186.473 492.853 186.387 491.904 186.092C490.955 185.797 490.08 185.299 489.342 184.632C488.603 183.966 488.017 183.147 487.623 182.232C487.23 181.316 487.039 180.327 487.064 179.33C487.064 170.915 492.098 163.734 494.672 156.104C497.302 148.577 499.469 140.895 501.16 133.101C501.43 130.797 501.841 128.511 502.391 126.257C500.35 131.901 497.192 137.073 493.105 141.461C491.026 143.593 488.241 144.89 485.274 145.107C482.305 145.323 479.331 144.742 476.66 143.424C473.819 142.091 471.286 140.18 469.22 137.814C467.002 135.31 465.512 132.244 464.913 128.95C464.127 124.558 463.678 120.113 463.57 115.653C463.57 110.043 463.234 104.152 463.234 97.7003C463.234 91.2485 463.234 84.6844 463.57 77.896C463.906 71.1075 464.073 64.5435 464.073 58.316C464.055 56.5945 464.452 54.8941 465.231 53.3602C466.011 51.8263 467.149 50.5045 468.549 49.5079C471.207 47.6477 474.28 46.4723 477.499 46.0856C480.558 45.783 483.643 46.2858 486.449 47.5443C487.64 47.8811 488.674 48.6283 489.37 49.6545C490.065 50.6807 490.378 51.92 490.253 53.1546C489.805 60.2796 489.246 67.9096 488.63 76.1568C488.015 84.4039 487.344 92.0339 486.784 99.2712C486.225 106.509 486.449 112.399 486.449 117.392C486.449 122.386 487.288 125.079 488.63 125.527C489.973 125.976 491.203 125.079 492.434 122.891C493.91 120.013 495.127 117.009 496.07 113.914C497.301 110.099 498.419 105.947 499.538 101.403C500.657 96.8588 501.608 92.4267 502.391 88.1067C503.174 83.7868 503.79 79.9157 504.349 76.4373C504.808 73.9737 505.089 71.4799 505.188 68.9756C507.873 67.6291 509.551 67.6291 510.334 68.9756C511.43 71.2997 512.166 73.7781 512.516 76.3251C512.675 78.4727 512.675 80.6293 512.516 82.7769C512.33 86.9156 511.882 91.0381 511.173 95.1196C510.39 99.8884 509.272 105.05 507.817 110.548C506.41 115.919 504.539 121.156 502.223 126.201C502.895 114.026 503.398 102.413 503.846 91.4168C504.293 80.4206 504.629 71.7808 504.852 65.3289C504.854 64.0265 505.23 62.7522 505.934 61.658C506.638 60.5637 507.641 59.6957 508.824 59.1576C511.476 57.7231 514.427 56.9351 517.438 56.8574C520.326 56.7053 523.202 57.3248 525.773 58.6526C526.879 59.1828 527.792 60.0466 528.384 61.1231C528.976 62.1996 529.217 63.4348 529.074 64.6557C528.402 69.3122 527.843 75.3152 527.395 82.6086C525.941 107.126 527.004 132.54 521.13 156.552C521.019 157.618 520.739 158.74 520.403 159.806Z" fill="white"/>
</g>
<defs>
<filter id="filter0_d_435_849" x="0" y="0" width="579.113" height="255" filterUnits="userSpaceOnUse" color-interpolation-filters="sRGB">
<feFlood flood-opacity="0" result="BackgroundImageFix"/>
<feColorMatrix in="SourceAlpha" type="matrix" values="0 0 0 0 0 0 0 0 0 0 0 0 0 0 0 0 0 0 127 0" result="hardAlpha"/>
<feOffset dy="4"/>
<feGaussianBlur stdDeviation="25"/>
<feComposite in2="hardAlpha" operator="out"/>
<feColorMatrix type="matrix" values="0 0 0 0 0 0 0 0 0 0 0 0 0 0 0 0 0 0 0.3 0"/>
<feBlend mode="normal" in2="BackgroundImageFix" result="effect1_dropShadow_435_849"/>
<feBlend mode="normal" in="SourceGraphic" in2="effect1_dropShadow_435_849" result="shape"/>
</filter>
<linearGradient id="paint0_linear_435_849" x1="514.992" y1="-13.3436" x2="514.992" y2="65.172" gradientUnits="userSpaceOnUse">
<stop offset="0.246288" stop-color="#FF8C73"/>
<stop offset="1" stop-color="#FFEB39"/>
</linearGradient>
</defs>
</svg>
